# Blender v2.82 (sub 7) OBJ File: ''
# www.blender.org
o Cube
v 30.631281 0.104268 -34.240784
v 30.631281 -0.104268 -34.240784
v 30.631281 0.104268 34.240784
v 30.631281 -0.104268 34.240784
v -30.631281 0.104268 -34.240784
v -30.631281 -0.104268 -34.240784
v -30.631281 0.104268 34.240784
v -30.631281 -0.104268 34.240784
v 0.000000 -0.104268 -34.240784
v 0.000000 0.104268 34.240784
v 0.000000 -0.104268 34.240784
v 0.000000 0.104268 -34.240784
v -30.631281 -0.104268 0.000000
v 30.631281 0.104268 0.000000
v -30.631281 0.104268 0.000000
v 30.631281 -0.104268 0.000000
v 0.000000 -0.104268 0.000000
v 0.000000 0.104268 0.000000
v -30.631281 -0.104268 17.120392
v 30.631281 0.104268 17.120392
v 0.000000 -0.104268 17.120392
v 0.000000 0.104268 17.120392
v -30.631281 0.104268 17.120392
v 30.631281 -0.104268 17.120392
v -30.631281 0.104268 8.560196
v 30.631281 -0.104268 8.560196
v -30.631281 -0.104268 8.560196
v 30.631281 0.104268 8.560196
v 0.000000 -0.104268 8.560196
v 0.000000 0.104268 8.560196
v 15.315640 -0.104268 34.240784
v 15.315640 0.104268 -34.240784
v 15.315640 -0.104268 -34.240784
v 15.315640 0.104268 34.240784
v 15.315640 0.104268 0.000000
v 15.315640 -0.104268 0.000000
v 15.315640 0.104268 17.120392
v 15.315640 -0.104268 17.120392
v 15.315640 -0.104268 8.560196
v 15.315640 0.104268 8.560196
v -30.631281 0.104268 -17.120392
v 30.631281 -0.104268 -17.120392
v -30.631281 -0.104268 -17.120392
v 30.631281 0.104268 -17.120392
v 0.000000 -0.104268 -17.120392
v 0.000000 0.104268 -17.120392
v 15.315640 -0.104268 -17.120392
v 15.315640 0.104268 -17.120392
v -15.315640 -0.104268 -34.240784
v -15.315640 0.104268 34.240784
v -15.315640 -0.104268 34.240784
v -15.315640 0.104268 -34.240784
v -15.315640 -0.104268 0.000000
v -15.315640 0.104268 0.000000
v -15.315640 -0.104268 17.120392
v -15.315640 0.104268 17.120392
v -15.315640 0.104268 8.560196
v -15.315640 -0.104268 8.560196
v -15.315640 0.104268 -17.120392
v -15.315640 -0.104268 -17.120392
v 0.000000 0.104268 0.000000
v -15.315640 0.104268 0.000000
v 0.000000 9.864376 17.120392
v 0.000000 9.864376 8.560196
v -15.315640 9.864376 17.120392
v -15.315640 9.864376 8.560196
v 30.631281 10.544785 17.120392
v 30.631281 10.544785 34.240784
v 15.315640 10.544785 17.120392
v 15.315640 10.544785 34.240784
v -30.731659 22.950249 -45.052944
v -30.731659 22.950249 -62.173336
v -15.416018 22.950249 -62.173336
v -15.416018 22.950249 -45.052944
v 0.000000 23.897070 -34.240784
v 15.315640 23.897070 -34.240784
v 0.000000 23.897070 -17.120392
v 15.315640 23.897070 -17.120392
vt 0.875000 0.687500
vt 0.812500 0.750000
vt 0.812500 0.687500
vt 0.625000 0.937500
vt 0.375000 1.000000
vt 0.375000 0.937500
vt 0.625000 0.187500
vt 0.375000 0.250000
vt 0.375000 0.187500
vt 0.375000 0.687500
vt 0.312500 0.750000
vt 0.312500 0.687500
vt 0.625000 0.687500
vt 0.375000 0.750000
vt 0.625000 0.437500
vt 0.375000 0.500000
vt 0.375000 0.437500
vt 0.625000 0.312500
vt 0.375000 0.375000
vt 0.375000 0.312500
vt 0.250000 0.687500
vt 0.187500 0.750000
vt 0.187500 0.687500
vt 0.625000 0.812500
vt 0.375000 0.875000
vt 0.375000 0.812500
vt 0.750000 0.687500
vt 0.687500 0.750000
vt 0.687500 0.687500
vt 0.750000 0.562500
vt 0.687500 0.625000
vt 0.687500 0.562500
vt 0.250000 0.562500
vt 0.187500 0.625000
vt 0.187500 0.562500
vt 0.625000 0.562500
vt 0.375000 0.625000
vt 0.375000 0.562500
vt 0.312500 0.625000
vt 0.312500 0.562500
vt 0.625000 0.093750
vt 0.375000 0.125000
vt 0.375000 0.093750
vt 0.875000 0.562500
vt 0.812500 0.625000
vt 0.812500 0.562500
vt 0.625000 0.000000
vt 0.375000 0.062500
vt 0.375000 0.000000
vt 0.750000 0.656250
vt 0.687500 0.656250
vt 0.250000 0.656250
vt 0.187500 0.656250
vt 0.625000 0.656250
vt 0.375000 0.656250
vt 0.312500 0.656250
vt 0.875000 0.656250
vt 0.812500 0.656250
vt 0.875000 0.625000
vt 0.625000 0.625000
vt 0.250000 0.625000
vt 0.750000 0.625000
vt 0.625000 0.062500
vt 0.625000 0.687500
vt 0.625000 0.750000
vt 0.625000 0.375000
vt 0.250000 0.750000
vt 0.687500 0.500000
vt 0.625000 0.500000
vt 0.312500 0.500000
vt 0.250000 0.500000
vt 0.812500 0.562500
vt 0.875000 0.562500
vt 0.187500 0.500000
vt 0.687500 0.562500
vt 0.625000 0.125000
vt 0.125000 0.562500
vt 0.125000 0.500000
vt 0.812500 0.500000
vt 0.750000 0.500000
vt 0.125000 0.656250
vt 0.125000 0.625000
vt 0.812500 0.687500
vt 0.125000 0.687500
vt 0.125000 0.750000
vt 0.625000 0.250000
vt 0.625000 0.875000
vt 0.750000 0.750000
vt 0.750000 0.625000
vt 0.812500 0.625000
vt 0.812500 0.656250
vt 0.750000 0.687500
vt 0.750000 0.656250
vt 0.687500 0.687500
vt 0.625000 0.750000
vt 0.625000 0.812500
vt 0.875000 0.500000
vt 0.812500 0.500000
vt 0.625000 0.187500
vt 0.625000 0.250000
vt 0.625000 0.312500
vt 0.750000 0.500000
vt 0.687500 0.500000
vt 0.625000 0.437500
vt 0.750000 0.562500
vt 0.875000 0.750000
vt 0.625000 1.000000
vt 0.687500 0.750000
vt 0.625000 0.375000
vn 0.0000 1.0000 0.0000
vn 0.0000 0.0000 1.0000
vn -1.0000 0.0000 0.0000
vn 0.0000 -1.0000 0.0000
vn 1.0000 0.0000 0.0000
vn 0.0000 0.0000 -1.0000
vn 0.0000 0.7741 0.6331
vn 1.0000 0.0044 0.0000
vn -1.0000 -0.0044 0.0000
vn 0.0000 -0.7741 -0.6331
s off
f 23/1/1 50/2/1 56/3/1
f 50/4/2 8/5/2 51/6/2
f 41/7/3 6/8/3 43/9/3
f 24/10/4 31/11/4 38/12/4
f 20/13/5 4/14/5 24/10/5
f 32/15/6 2/16/6 33/17/6
f 52/18/6 9/19/6 49/20/6
f 21/21/4 51/22/4 55/23/4
f 34/24/2 11/25/2 31/26/2
f 22/27/1 34/28/1 37/29/1
f 46/30/1 35/31/1 48/32/1
f 45/33/4 53/34/4 60/35/4
f 44/36/5 16/37/5 42/38/5
f 42/38/4 36/39/4 47/40/4
f 25/41/3 13/42/3 27/43/3
f 41/44/1 54/45/1 59/46/1
f 7/47/3 19/48/3 8/49/3
f 30/50/1 37/29/1 40/51/1
f 29/52/4 55/23/4 58/53/4
f 28/54/5 24/10/5 26/55/5
f 26/55/4 38/12/4 39/56/4
f 25/57/1 56/3/1 57/58/1
f 15/59/1 57/58/1 54/45/1
f 16/37/4 39/56/4 36/39/4
f 14/60/5 26/55/5 16/37/5
f 17/61/4 58/53/4 53/34/4
f 18/62/1 40/51/1 35/31/1
f 23/63/3 27/43/3 19/48/3
f 35/31/1 28/54/1 14/60/1
f 36/39/4 29/52/4 17/61/4
f 39/56/4 21/21/4 29/52/4
f 40/51/1 20/13/1 28/54/1
f 47/40/4 17/61/4 45/33/4
f 48/32/1 14/60/1 44/36/1
f 37/29/6 67/64/6 20/13/6
f 3/65/2 31/26/2 4/14/2
f 12/66/6 33/17/6 9/19/6
f 38/12/4 11/67/4 21/21/4
f 32/68/1 44/36/1 1/69/1
f 33/70/4 45/33/4 9/71/4
f 41/44/7 74/72/7 71/73/7
f 2/16/4 47/40/4 33/70/4
f 1/69/5 42/38/5 2/16/5
f 9/71/4 60/35/4 49/74/4
f 32/68/5 78/75/5 48/32/5
f 15/76/3 43/9/3 13/42/3
f 49/74/4 43/77/4 6/78/4
f 52/79/1 46/30/1 12/80/1
f 53/34/4 27/81/4 13/82/4
f 54/45/1 30/50/1 18/62/1
f 22/27/2 65/83/2 56/3/2
f 58/53/4 19/84/4 27/81/4
f 59/46/1 18/62/1 46/30/1
f 60/35/4 13/82/4 43/77/4
f 55/23/4 8/85/4 19/84/4
f 5/86/6 49/20/6 6/8/6
f 10/87/2 51/6/2 11/25/2
f 56/3/1 10/88/1 22/27/1
f 54/45/2 61/89/2 62/90/2
f 66/91/1 63/92/1 64/93/1
f 57/58/6 64/93/6 30/50/6
f 30/50/5 63/92/5 22/27/5
f 56/3/3 66/91/3 57/58/3
f 69/94/1 68/95/1 67/64/1
f 34/28/3 69/94/3 37/29/3
f 3/65/2 70/96/2 34/24/2
f 20/13/5 68/95/5 3/65/5
f 72/97/1 74/72/1 73/98/1
f 52/79/8 74/72/8 59/46/8
f 5/86/9 71/99/9 72/100/9
f 5/86/10 73/101/10 52/18/10
f 75/102/1 78/75/1 76/103/1
f 46/30/3 75/102/3 12/80/3
f 12/66/6 76/104/6 32/15/6
f 48/32/2 77/105/2 46/30/2
f 23/1/1 7/106/1 50/2/1
f 50/4/2 7/107/2 8/5/2
f 41/7/3 5/86/3 6/8/3
f 24/10/4 4/14/4 31/11/4
f 20/13/5 3/65/5 4/14/5
f 32/15/6 1/69/6 2/16/6
f 52/18/6 12/66/6 9/19/6
f 21/21/4 11/67/4 51/22/4
f 34/24/2 10/87/2 11/25/2
f 22/27/1 10/88/1 34/28/1
f 46/30/1 18/62/1 35/31/1
f 45/33/4 17/61/4 53/34/4
f 44/36/5 14/60/5 16/37/5
f 42/38/4 16/37/4 36/39/4
f 25/41/3 15/76/3 13/42/3
f 41/44/1 15/59/1 54/45/1
f 7/47/3 23/63/3 19/48/3
f 30/50/1 22/27/1 37/29/1
f 29/52/4 21/21/4 55/23/4
f 28/54/5 20/13/5 24/10/5
f 26/55/4 24/10/4 38/12/4
f 25/57/1 23/1/1 56/3/1
f 15/59/1 25/57/1 57/58/1
f 16/37/4 26/55/4 39/56/4
f 14/60/5 28/54/5 26/55/5
f 17/61/4 29/52/4 58/53/4
f 18/62/1 30/50/1 40/51/1
f 23/63/3 25/41/3 27/43/3
f 35/31/1 40/51/1 28/54/1
f 36/39/4 39/56/4 29/52/4
f 39/56/4 38/12/4 21/21/4
f 40/51/1 37/29/1 20/13/1
f 47/40/4 36/39/4 17/61/4
f 48/32/1 35/31/1 14/60/1
f 37/29/6 69/94/6 67/64/6
f 3/65/2 34/24/2 31/26/2
f 12/66/6 32/15/6 33/17/6
f 38/12/4 31/11/4 11/67/4
f 32/68/1 48/32/1 44/36/1
f 33/70/4 47/40/4 45/33/4
f 41/44/7 59/46/7 74/72/7
f 2/16/4 42/38/4 47/40/4
f 1/69/5 44/36/5 42/38/5
f 9/71/4 45/33/4 60/35/4
f 32/68/5 76/103/5 78/75/5
f 15/76/3 41/7/3 43/9/3
f 49/74/4 60/35/4 43/77/4
f 52/79/1 59/46/1 46/30/1
f 53/34/4 58/53/4 27/81/4
f 54/45/1 57/58/1 30/50/1
f 22/27/2 63/92/2 65/83/2
f 58/53/4 55/23/4 19/84/4
f 59/46/1 54/45/1 18/62/1
f 60/35/4 53/34/4 13/82/4
f 55/23/4 51/22/4 8/85/4
f 5/86/6 52/18/6 49/20/6
f 10/87/2 50/4/2 51/6/2
f 56/3/1 50/2/1 10/88/1
f 54/45/2 18/62/2 61/89/2
f 66/91/1 65/83/1 63/92/1
f 57/58/6 66/91/6 64/93/6
f 30/50/5 64/93/5 63/92/5
f 56/3/3 65/83/3 66/91/3
f 69/94/1 70/108/1 68/95/1
f 34/28/3 70/108/3 69/94/3
f 3/65/2 68/95/2 70/96/2
f 20/13/5 67/64/5 68/95/5
f 72/97/1 71/73/1 74/72/1
f 52/79/8 73/98/8 74/72/8
f 5/86/9 41/7/9 71/99/9
f 5/86/10 72/100/10 73/101/10
f 75/102/1 77/105/1 78/75/1
f 46/30/3 77/105/3 75/102/3
f 12/66/6 75/109/6 76/104/6
f 48/32/2 78/75/2 77/105/2
